<?xml version="1.0" encoding="UTF-8"?>
<svg width="450px" height="322px" viewBox="0 0 450 322" version="1.1" xmlns="http://www.w3.org/2000/svg" xmlns:xlink="http://www.w3.org/1999/xlink">
    <!-- Generator: Sketch 42 (36781) - http://www.bohemiancoding.com/sketch -->
    <title>Artboard</title>
    <desc>Created with Sketch.</desc>
    <defs></defs>
    <g id="Page-1" stroke="none" stroke-width="1" fill="none" fill-rule="evenodd">
        <g id="Artboard">
            <g id="350" transform="translate(-113.000000, -102.000000)">
                <g id="Group-2">
                    <path d="M269.77189,183.066982 C269.77189,183.066982 272.575616,178.356877 275.779564,174.729924 C278.983512,171.10297 279.795712,170.443532 280.760334,169.419442 C281.724955,168.395353 287.078725,163.864195 290.726619,161.293173 C296.52305,157.20787 302.097569,154.300332 306.324855,152.363356 C310.55214,150.426381 314.343088,149.193745 314.956524,148.885677 C315.593761,148.565656 325.430898,145.221102 333.744129,143.775865 C342.05736,142.330629 341.628936,142.47711 343.360595,142.330629 C348.910492,141.861165 351.065742,141.49278 355.078924,141.49278 C357.888608,141.49278 360.675546,141.394405 363.392295,141.49278 C364.801996,141.543826 367.780555,141.66452 370.996155,141.954087 C374.211755,142.243653 377.16292,142.649027 379.488106,142.984603 C386.592196,144.009883 395.524404,146.349394 397.976878,147.261435 C399.069142,147.667633 402.029655,148.574105 403.561125,149.149558 C404.177173,149.381039 405.750573,149.983551 407.719268,150.79589 C409.687962,151.60823 414.422737,153.691309 417.184068,155.251273 C423.645773,158.901695 426.053768,160.42407 429.283194,162.897494 C430.672591,163.961636 432.044073,165.050291 433.384103,166.18285 C434.724133,167.315409 438.0547,170.373407 440.18168,172.748443 C443.500745,176.45459 446.505642,180.356229 449.168138,185.145902 C451.830634,189.935575 453.889074,195.223351 454.983411,201.442921 C455.445247,204.067723 455.782873,207.161966 455.758742,209.883626 C455.734611,212.605286 455.255383,216.574704 455.255383,216.574704 C455.255383,216.574704 459.945611,216.863405 465.205116,217.437368 C470.464621,218.011332 473.535651,218.800202 475.829623,219.125702 C478.546806,219.511254 482.027607,220.150913 485.182946,221.011364 C488.338286,221.871815 491.235639,222.761799 493.178262,223.521764 C494.179737,223.913547 500.581851,226.304156 507.623819,229.5959 C509.947063,230.681892 515.212384,233.470273 521.186917,237.555762 C523.310977,239.00823 529.502702,243.40225 534.931109,249.402513 C537.760586,252.530061 542.676409,258.138662 546.063579,264.964172 C549.45075,271.789682 550.857167,278.647142 551.467932,283.555803 C551.902668,287.04974 552.240259,294.884982 550.136111,302.527632 C549.363208,305.334959 547.433129,311.693974 543.569238,317.636859 C542.208058,319.730431 539.804692,323.957036 536.38289,327.487169 C534.462362,329.4685 530.200506,334.141576 525.236876,337.938895 C520.273247,341.736215 516.93165,343.602359 513.696154,345.498669 C506.448724,349.746353 497.232087,353.939428 487.198745,356.658461 C483.848487,357.56638 475.829623,359.75114 467.455621,360.806631 C463.939569,361.249808 456.268882,362.068035 449.168138,362.068035 C446.203135,362.068035 442.188066,362.001915 438.632469,361.765455 C435.076872,361.528995 429.383317,360.895823 429.383317,360.895823 C429.383317,360.895823 426.1056,363.378955 423.975154,364.584179 C421.844707,365.789402 420.793194,366.578227 415.831743,368.89779 C415.116588,369.232137 411.428811,370.94843 405.645655,372.987946 C404.884823,373.256265 401.158478,374.505795 396.490023,375.820114 C395.926226,375.978841 392.912965,376.825853 389.237068,377.667696 C388.833592,377.760099 386.53382,378.263081 383.463981,378.909433 C383.077942,378.990713 380.572341,379.477493 376.897671,380.096627 C376.40884,380.178988 373.587186,380.635633 369.672892,381.13795 C369.07491,381.214688 365.532681,381.749589 360.752277,382.165126 C359.891205,382.239974 355.543624,382.676805 349.532489,382.948597 C348.456337,382.997255 344.265683,383.252148 338.679951,383.252148 C337.635054,383.252148 333.638018,383.364134 328.22761,383.165979 C327.293572,383.131771 323.389593,383.062923 319.258636,382.748858 C318.509063,382.69187 315.281471,382.503641 311.446576,382.127317 C310.678314,382.051926 307.254045,381.758087 303.180558,381.201469 C302.105982,381.054634 297.237082,380.466969 291.756206,379.42557 C290.313481,379.151444 286.361823,378.43361 282.093242,377.394696 C280.669914,377.048277 276.404742,376.054895 271.870311,374.632455 C270.16737,374.098247 266.626839,373.0272 263.203699,371.669107 C261.152415,370.855282 257.270234,369.348905 254.643636,367.970539 C254.021358,367.643985 253.499562,367.39569 253.088865,367.182819 C252.678169,366.969949 251.452679,366.326972 251.452679,366.326972 C251.452679,366.326972 247.298876,366.267697 246.203859,366.267697 C246.07588,366.267697 241.983051,366.211913 239.637079,366.096331 C239.373804,366.08336 235.88128,365.948053 233.972074,365.830348 C233.754964,365.816963 230.112804,365.599243 227.851886,365.403595 C227.524628,365.375276 222.970715,365.025594 219.300548,364.584179 C218.698822,364.511809 212.780122,363.872384 210.149195,363.454831 C207.518269,363.037278 202.692873,362.362481 198.919103,361.608587 C195.145333,360.854693 190.876532,360.070449 187.051884,359.063056 C186.197146,358.837923 175.023809,355.900971 171.59269,354.579043 C170.910624,354.31626 166.834155,353.013464 163.49543,351.632296 C162.84094,351.361545 157.682977,349.36681 154.210134,347.58111 C153.520111,347.226307 150.372003,345.813602 145.908917,343.144712 C145.154912,342.693824 141.604306,340.450111 138.816786,338.408881 C138.282841,338.017888 134.910919,335.438829 132.472674,332.968333 C131.958091,332.446943 127.573758,328.02705 125.658927,324.233565 C125.319638,323.561398 123.587609,320.563091 122.928776,318.031471 C122.526609,316.486112 122.225936,315.137435 122.068413,313.569838 C121.983673,312.726538 121.953013,312.189895 121.94432,311.669738 C121.935626,311.149582 121.943333,310.787348 121.971534,310.191989 C121.99946,309.602434 122.033419,308.899735 122.148675,308.041501 C122.263931,307.183267 122.39226,306.228937 122.747108,304.995425 C123.472829,302.472699 123.601872,302.227086 124.402042,300.423839 C124.584679,300.012251 125.275938,298.594832 126.120878,297.210765 C126.965818,295.826697 127.702029,294.802991 128.17235,294.199845 C129.176709,292.91184 130.198597,291.699245 130.869238,290.995317 C132.734979,289.036969 133.346578,288.44927 134.750626,287.21275 C135.34552,286.688838 136.256047,285.912877 137.423904,284.986986 C138.122017,284.433514 139.022473,283.736847 140.025488,283.017546 C141.028503,282.298245 141.425295,282.050278 142.152797,281.552119 C143.706541,280.488189 144.752195,279.868156 145.625842,279.343254 C146.499488,278.818352 147.505417,278.228054 148.810682,277.516447 C149.187543,277.310989 149.662088,277.038683 150.230188,276.734742 C150.798289,276.4308 152.230037,275.695304 153.386179,275.122928 C153.988961,274.824507 154.845585,274.399672 155.764503,273.973109 C156.68342,273.546547 157.595622,273.149764 158.42958,272.773826 C160.127896,272.008246 160.291458,271.970921 160.655317,271.818288 C161.631496,271.408797 163.145452,270.792342 164.707981,270.187737 C166.27051,269.583133 169.066271,268.575874 169.975419,268.267783 C171.547674,267.734979 173.204063,267.158571 175.311249,266.504889 C177.418435,265.851206 180.305357,265.051709 180.305357,265.051709 C180.305357,265.051709 179.92069,263.905453 179.736882,263.319097 C179.553075,262.732741 179.21686,261.60269 179.21686,261.60269 C179.21686,261.60269 178.43983,258.915933 177.811047,255.130137 C177.706234,254.499076 177.644393,254.015926 177.591441,253.604757 C177.538488,253.193587 177.466089,252.55978 177.433572,252.254446 C177.379392,251.745685 177.346917,251.386509 177.270567,250.450659 C177.139632,248.845735 177.105871,247.514325 177.105871,246.092992 C177.105871,244.671659 177.148338,243.57802 177.224689,242.446965 C177.30104,241.31591 177.361802,240.528922 177.465798,239.657913 C177.569795,238.786904 177.653401,238.076506 177.750309,237.465096 C177.812878,237.070336 177.815305,237.064958 177.884625,236.663696 C177.953946,236.262433 177.966673,236.100988 178.084957,235.516529 C178.418767,233.867123 178.468938,233.265291 179.36589,230.128975 C179.867789,228.374017 180.05046,227.884372 180.177616,227.53071 C180.304771,227.177049 180.335422,227.044171 180.541717,226.46531 C180.874994,225.530135 181.142989,224.855679 181.430982,224.166695 C181.718976,223.477712 181.669458,223.604886 181.799424,223.308569 C181.864643,223.159871 182.001993,222.80049 182.178759,222.402063 C182.355526,222.003637 182.568809,221.572678 182.727074,221.221189 C183.04476,220.515647 183.309483,219.998415 183.62295,219.397833 C183.936417,218.797252 184.202853,218.279088 184.524264,217.700202 C184.734685,217.321217 185.109881,216.679157 185.488756,216.048343 C185.867631,215.417528 185.893529,215.389017 186.066995,215.099254 C186.569328,214.260138 186.806191,213.917264 187.200206,213.333444 C188.241258,211.7909 188.001729,212.161287 188.434838,211.545708 C189.367125,210.220646 189.974338,209.484967 189.974338,209.484967 C189.974338,209.484967 191.171669,207.866518 192.832282,206.052263 C194.492895,204.238008 195.476732,203.19371 196.714588,202.052937 C199.615388,199.379638 200.359571,198.770442 201.433411,197.941422 C202.50725,197.112401 203.175115,196.588786 203.487828,196.361274 C205.107314,195.18303 205.880183,194.669375 206.196446,194.458689 C207.685907,193.46645 208.289496,193.100018 208.443435,193.001727 C209.247918,192.48806 210.181457,191.9607 210.181457,191.9607 C210.181457,191.9607 210.874654,191.544865 211.804968,191.030451 C212.735282,190.516038 214.092465,189.800629 215.132165,189.298925 C217.134733,188.332592 216.545141,188.619025 216.719462,188.538156 C217.329355,188.255223 218.189591,187.868472 218.906466,187.561464 C219.623341,187.254456 220.104395,187.075276 220.190637,187.037569 C221.322902,186.542516 223.408404,185.809338 223.570544,185.75322 C228.181584,184.157304 230.438455,183.645915 230.438455,183.645915 C230.438455,183.645915 234.307558,182.721285 236.379733,182.355821 C238.451908,181.990357 241.171833,181.597314 242.971952,181.431508 C247.255693,181.036939 251.452679,181.036939 251.452679,181.036939 C251.452679,181.036939 256.421979,181.035881 260.708289,181.552326 C264.994598,182.068772 266.342983,182.337318 267.222379,182.512606 C269.402029,182.94707 269.77189,183.066982 269.77189,183.066982 Z" id="Line" fill-opacity="0.4" fill="#E1E1E1"></path>
                    <path d="M263.001488,181.160953 C263.001488,181.160953 265.676808,176.666563 268.734021,173.205718 C271.791234,169.744872 272.566236,169.115635 273.48668,168.138447 C274.407124,167.161259 279.5157,162.83762 282.996527,160.384347 C288.527492,156.486144 293.846707,153.711765 297.88039,151.8635 C301.914073,150.015235 305.531402,148.839052 306.116744,148.545093 C306.724797,148.239728 316.11141,145.048349 324.043909,143.669302 C331.976408,142.290255 331.567605,142.430027 333.219958,142.290255 C338.515679,141.842291 340.572222,141.490777 344.401607,141.490777 C347.082613,141.490777 349.741914,141.396908 352.334241,141.490777 C353.679379,141.539485 356.521526,141.654653 359.589857,141.930957 C362.658188,142.207262 365.474194,142.59407 367.692891,142.914278 C374.471626,143.892602 382.994754,146.124967 385.334909,146.995238 C386.37715,147.382833 389.202076,148.247791 390.663407,148.796888 C391.251241,149.017768 392.752583,149.592686 394.631115,150.367822 C396.509646,151.142957 401.027576,153.130635 403.662444,154.619155 C409.828213,158.102395 412.125927,159.555047 415.20745,161.915193 C416.533215,162.930599 417.841885,163.969395 419.120544,165.050085 C420.399203,166.130775 423.577236,169.048721 425.606804,171.314985 C428.773862,174.851398 431.64114,178.574348 434.181698,183.144662 C436.722256,187.714976 438.686423,192.760581 439.730642,198.695306 C440.171326,201.199896 440.49349,204.152428 440.470464,206.749441 C440.447438,209.346454 439.990158,213.13408 439.990158,213.13408 C439.990158,213.13408 444.465582,213.409558 449.48421,213.957235 C454.502839,214.504912 457.433222,215.257653 459.622133,215.568247 C462.214874,215.936141 465.53626,216.546505 468.547091,217.367548 C471.557921,218.188591 474.322581,219.037816 476.176235,219.762976 C477.131844,220.136816 483.240752,222.41794 489.96021,225.558927 C492.177054,226.595183 497.201232,229.25586 502.902142,233.154241 C504.928923,234.540189 510.837078,238.73297 516.016874,244.458431 C518.716765,247.442743 523.407452,252.79448 526.639496,259.307393 C529.87154,265.820307 531.213545,272.363707 531.796338,277.04756 C532.211165,280.381481 532.533294,287.857882 530.525513,295.150512 C529.788007,297.829268 527.946323,303.897051 524.259391,309.567762 C522.960551,311.565452 520.667254,315.598486 517.402166,318.966946 C515.569595,320.857534 511.502924,325.316592 506.76662,328.940001 C502.030316,332.563409 498.841759,334.344087 495.754442,336.153549 C488.838933,340.206697 480.044402,344.207737 470.470569,346.802243 C467.273747,347.668581 459.622133,349.753282 451.631646,350.760434 C448.276623,351.183313 440.957241,351.964068 434.181698,351.964068 C431.352487,351.964068 427.521301,351.900976 424.128544,351.675345 C420.735788,351.449714 415.302988,350.845541 415.302988,350.845541 C415.302988,350.845541 412.175385,353.21495 410.142509,354.364976 C408.109633,355.515002 407.106278,356.2677 402.372052,358.481032 C401.689651,358.800066 398.170767,360.437756 392.65247,362.383865 C391.926483,362.639895 388.370797,363.8322 383.91615,365.086325 C383.378174,365.237783 380.502915,366.046003 376.995367,366.849291 C376.61037,366.937462 374.415924,367.417408 371.486678,368.034158 C371.118319,368.111716 368.72747,368.576202 365.221094,369.166981 C364.754651,369.24557 362.062223,369.681301 358.327197,370.160613 C357.756601,370.233837 354.3766,370.74424 349.81513,371.140746 C348.993495,371.212167 344.845025,371.628992 339.109189,371.888336 C338.082324,371.934765 334.083594,372.177984 328.753679,372.177984 C327.756636,372.177984 323.942657,372.284842 318.780037,372.095763 C317.888777,372.06312 314.163593,371.997426 310.221827,371.697745 C309.506583,371.643367 306.426809,371.463758 302.767545,371.104669 C302.034468,371.032731 298.767025,370.752349 294.880097,370.221223 C293.854735,370.081113 289.208822,369.520362 283.978961,368.526657 C282.60231,368.265086 278.83163,367.580128 274.758543,366.588794 C273.400401,366.25824 269.330567,365.310353 265.003805,363.953059 C263.378856,363.443316 260.000474,362.421322 256.734109,361.125427 C254.77677,360.348874 251.072386,358.911486 248.566082,357.596247 C247.972303,357.284648 247.474404,357.047725 247.082517,356.844604 C246.69063,356.641482 245.521266,356.027952 245.521266,356.027952 C245.521266,356.027952 241.557699,355.971392 240.512832,355.971392 C240.390714,355.971392 236.48533,355.918163 234.246799,355.807874 C233.995581,355.795497 230.66301,355.666388 228.841241,355.554073 C228.634075,355.541301 225.15872,355.333552 223.001348,355.146865 C222.689077,355.119843 218.343726,354.786175 214.841646,354.364976 C214.267478,354.29592 208.619844,353.685781 206.10941,353.287351 C203.598975,352.88892 198.994574,352.245028 195.393636,351.525661 C191.792698,350.806295 187.719401,350.057967 184.069915,349.096712 C183.254322,348.881889 172.592705,346.079444 169.318725,344.818059 C168.667897,344.56731 164.778123,343.32418 161.592306,342.006267 C160.967791,341.747916 156.046053,339.844537 152.732261,338.140618 C152.073839,337.802065 149.069909,336.45406 144.811225,333.9074 C144.091753,333.477161 140.703758,331.336207 138.043901,329.388462 C137.53441,329.015375 134.316916,326.554433 131.990339,324.197082 C131.499323,323.69957 127.315784,319.4821 125.488649,315.862351 C125.164899,315.220967 123.512194,312.359978 122.883534,309.944302 C122.499786,308.469718 122.212883,307.182808 122.062575,305.687004 C121.981716,304.882325 121.95246,304.37026 121.944165,303.873926 C121.93587,303.377592 121.943224,303.031947 121.970133,302.463855 C121.996779,301.9013 122.029183,301.230784 122.139161,300.411855 C122.249138,299.592927 122.37159,298.682303 122.710187,297.505284 C123.402671,295.098095 123.525804,294.86373 124.289327,293.143069 C124.4636,292.750331 125.123201,291.397828 125.929444,290.077148 C126.735687,288.756469 127.438181,287.779646 127.886962,287.204123 C128.845323,285.975106 129.82041,284.818047 130.460337,284.146357 C132.240631,282.277698 132.82422,281.716914 134.163964,280.537025 C134.731613,280.037107 135.60044,279.296684 136.714811,278.413198 C137.380952,277.885073 138.240168,277.220312 139.197247,276.533954 C140.154325,275.847596 140.532945,275.610985 141.227129,275.135641 C142.709714,274.120437 143.707479,273.5288 144.541114,273.027938 C145.374749,272.527076 146.334608,271.963812 147.580094,271.284796 C147.939696,271.088748 148.392507,270.828913 148.934589,270.538892 C149.476672,270.24887 150.842848,269.547058 151.946041,269.000896 C152.521217,268.716142 153.338609,268.310764 154.215442,267.903737 C155.092275,267.49671 155.962699,267.118099 156.758463,266.759379 C158.378999,266.028861 158.53507,265.993246 158.882265,265.847603 C159.813737,265.456865 161.258356,264.868643 162.749324,264.291729 C164.240292,263.714814 166.908012,262.753686 167.775522,262.459705 C169.275771,261.951303 170.856301,261.401293 172.866981,260.777548 C174.877662,260.153803 177.632367,259.390922 177.632367,259.390922 C177.632367,259.390922 177.265318,258.297162 177.089928,257.73766 C176.914538,257.178158 176.593721,256.099862 176.593721,256.099862 C176.593721,256.099862 175.852278,253.536153 175.252293,249.92374 C175.15228,249.321581 175.093271,248.860558 175.042744,248.46822 C174.992216,248.075881 174.923133,247.471101 174.892105,247.179751 C174.840406,246.69429 174.809419,246.351563 174.736566,245.458574 C174.611627,243.927153 174.579413,242.656719 174.579413,241.300481 C174.579413,239.944243 174.619935,238.90069 174.692789,237.821435 C174.765643,236.742181 174.823623,235.991235 174.922856,235.160117 C175.022089,234.328999 175.101867,233.651136 175.194337,233.067727 C175.25404,232.691047 175.256356,232.685915 175.322501,232.30303 C175.388647,231.920145 175.400791,231.766094 175.513658,231.208401 C175.83218,229.634535 175.880053,229.060266 176.735926,226.067589 C177.214839,224.393004 177.389144,223.925784 177.510477,223.58832 C177.631809,223.250856 177.661056,223.124063 177.857902,222.571712 C178.175916,221.679367 178.431637,221.0358 178.706441,220.378371 C178.981245,219.720941 178.933995,219.842291 179.058009,219.559545 C179.120241,219.417657 179.2513,219.074735 179.419971,218.694556 C179.588642,218.314376 179.792157,217.903155 179.943174,217.567764 C180.246311,216.894534 180.49891,216.40099 180.79802,215.827914 C181.097131,215.254838 181.351365,214.760405 181.658056,214.208031 C181.85884,213.846403 182.216852,213.233749 182.578376,212.631824 C182.939899,212.0299 182.964611,212.002695 183.130133,211.726202 C183.60946,210.925516 183.835474,210.598345 184.211444,210.041264 C185.204818,208.569366 184.976259,208.922789 185.389532,208.335402 C186.279122,207.071027 186.858526,206.36904 186.858526,206.36904 C186.858526,206.36904 188.001021,204.824713 189.585581,203.093548 C191.170141,201.362383 192.10892,200.365912 193.290084,199.277384 C196.058033,196.726518 196.768133,196.145222 197.792793,195.354169 C198.817453,194.563117 199.45473,194.063482 199.753121,193.84639 C201.298437,192.722107 202.035911,192.231977 202.337689,192.03094 C203.758935,191.084143 204.334881,190.734493 204.48177,190.640703 C205.249409,190.150562 206.140194,189.647354 206.140194,189.647354 C206.140194,189.647354 206.801644,189.250563 207.689351,188.759709 C208.577058,188.268855 209.872084,187.586211 210.864168,187.107484 C212.775022,186.185408 212.212432,186.458722 212.37877,186.381557 C212.960731,186.111581 213.781569,185.742543 214.465612,185.449596 C215.149656,185.156648 215.608678,184.985674 215.690971,184.949694 C216.77138,184.477313 218.761369,183.777714 218.916083,183.724166 C223.315946,182.201341 225.469457,181.713372 225.469457,181.713372 C225.469457,181.713372 229.161362,180.831088 231.138634,180.482362 C233.115907,180.133635 235.711264,179.758593 237.428941,179.600381 C241.516494,179.223882 245.521266,179.223882 245.521266,179.223882 C245.521266,179.223882 250.26298,179.222873 254.352984,179.715666 C258.442988,180.208459 259.729619,180.464706 260.56874,180.631966 C262.648566,181.046532 263.001488,181.160953 263.001488,181.160953 Z" id="gb-copy-2" fill-opacity="0.9" fill="#FFFFFF"></path>
                </g>
            </g>
        </g>
    </g>
</svg>